<?xml version="1.0" standalone="no"?>
<!DOCTYPE svg PUBLIC "-//W3C//DTD SVG 20010904//EN"
 "http://www.w3.org/TR/2001/REC-SVG-20010904/DTD/svg10.dtd">
<svg version="1.0" xmlns="http://www.w3.org/2000/svg"
 width="128.000000pt" height="128.000000pt" viewBox="0 0 128.000000 128.000000"
 preserveAspectRatio="xMidYMid meet">

<g transform="translate(0.000000,128.000000) scale(0.100000,-0.100000)"
fill="#ef8307" stroke="none">
<path d="M545 1157 c-85 -34 -128 -73 -167 -147 -34 -66 -33 -195 2 -264 48
-93 135 -148 246 -154 128 -7 226 54 282 176 20 45 23 65 20 125 -6 112 -61
200 -154 247 -57 29 -179 38 -229 17z"/>
<path d="M273 580 c-190 -109 -221 -303 -64 -397 92 -55 174 -68 431 -68 257
0 339 13 431 68 160 96 122 299 -74 403 l-54 28 -45 -37 c-24 -20 -71 -49
-104 -64 -51 -24 -71 -28 -154 -28 -86 0 -101 3 -160 31 -36 17 -82 45 -102
63 -20 17 -40 31 -44 31 -5 0 -32 -14 -61 -30z"/>
</g>
</svg>
